<svg viewBox="0 0 32 32" id="icon-vr" xmlns="http://www.w3.org/2000/svg"><path fill="#fff" d="M29.839 9.715H2.161v11.533l9.24 1.542c-.014-.13-.014-.259-.014-.389 0-2.552 2.061-4.613 4.613-4.613s4.613 2.061 4.613 4.613c0 .13 0 .259-.014.389l9.24-1.542V9.715z"></path><path d="M28.686 8.562H3.314a2.313 2.313 0 00-2.307 2.306v9.226A2.313 2.313 0 003.314 22.4l7.179 1.023a.667.667 0 00.159.014 1.16 1.16 0 001.067-.721l1.11-2.782c.519-1.297 1.773-2.148 3.157-2.148s2.652.851 3.157 2.148l1.11 2.782c.173.447.605.721 1.067.721.058 0 .115 0 .159-.014l7.208-1.023a2.313 2.313 0 002.306-2.306v-9.226a2.313 2.313 0 00-2.306-2.306zm1.153 11.532c0 .634-.519 1.153-1.153 1.153h-.087l-.087.014-7.179 1.023-1.11-2.782c-.692-1.744-2.35-2.869-4.224-2.869s-3.532 1.124-4.238 2.869l-1.11 2.782-7.265-1.038h-.072a1.157 1.157 0 01-1.153-1.153v-9.226c0-.634.519-1.153 1.153-1.153h25.372c.634 0 1.153.519 1.153 1.153v9.226z"></path><path d="M27.532 10.868h1.153v9.226h-1.153v-9.226zm-24.218 0h1.153v9.226H3.314v-9.226zm2.307 2.307H26.38v1.153H5.621v-1.153z"></path></svg>