<svg viewBox="0 0 32 32" id="icon-smart-home" xmlns="http://www.w3.org/2000/svg"><path fill="#fff" d="M15.982 4.379L5.585 14.394v11.287l6.327.254.191-2.798.318-4.038v11.51h7.217v-12.05l.191.222.064 6.868h6.136l.318-.541.254-10.302L15.982 4.377zm1.622 13.481h-4.165l1.844-.191 2.321.191zm-1.622 11.223a2.13 2.13 0 112.13-2.13 2.11 2.11 0 01-2.13 2.13z"></path><path d="M30.162 14.076L16.999.913A1.455 1.455 0 0016.013.5c-.382 0-.731.159-.986.413L1.864 14.076a1.455 1.455 0 00-.413.986c0 .382.159.731.413.986l.604.604c.254.254.636.413.986.413.382 0 .731-.159.986-.413l.541-.541v8.998c0 .763.636 1.399 1.399 1.399h5.055v2.734c0 .382.095.763.286 1.081.064.127.159.254.254.35.127.159.286.318.477.445.35.254.795.382 1.272.382h4.578c1.176 0 2.13-.89 2.257-2.035v-2.956h5.055c.763 0 1.399-.636 1.399-1.399v-8.998l.541.541c.254.254.636.413.986.413.382 0 .731-.159.986-.413l.604-.604c.254-.254.413-.636.413-.986a1.248 1.248 0 00-.382-.986zM13.693 30.133a.783.783 0 01-.477-.159.888.888 0 01-.382-.731V19.164c0-.286.159-.572.382-.731a.86.86 0 01.477-.159h4.578c.35 0 .668.222.795.541.032.095.064.222.064.35v10.079c0 .127-.032.222-.064.35a.866.866 0 01-.795.541h-4.578zm11.891-5.024h-5.055v-6.168a2.274 2.274 0 00-2.257-2.035h-1.24c-.254-.318-.636-.509-1.049-.509s-.795.191-1.049.509h-1.24c-.477 0-.89.127-1.272.382-.191.127-.35.254-.477.445-.095.127-.159.222-.254.35-.159.318-.286.7-.286 1.081v5.946H6.35V14.713l9.602-9.602 9.602 9.602.032 10.397zm2.957-9.443L17 4.125a1.455 1.455 0 00-.986-.413c-.382 0-.731.159-.986.413L3.455 15.666l-.636-.636L15.982 1.867 29.145 15.03l-.604.636z"></path><path d="M15.982 13.568c-.986 0-1.876.477-2.575 1.367a.74.74 0 00.127.986.74.74 0 00.986-.127c.413-.541.922-.827 1.463-.827s1.049.286 1.463.827a.68.68 0 00.572.286.64.64 0 00.413-.127.676.676 0 00.127-.986c-.668-.89-1.59-1.399-2.575-1.399z"></path><path d="M11.658 13.25a.74.74 0 00.127.986.74.74 0 00.986-.127c.858-1.145 2.003-1.812 3.211-1.812s2.353.636 3.211 1.812a.68.68 0 00.572.286.64.64 0 00.413-.127.676.676 0 00.127-.986c-1.145-1.526-2.703-2.385-4.356-2.385-1.621 0-3.148.827-4.292 2.353zm4.324 11.032c-1.463 0-2.671 1.208-2.671 2.671s1.208 2.671 2.671 2.671c1.463 0 2.671-1.208 2.671-2.671s-1.176-2.671-2.671-2.671zm0 3.943c-.7 0-1.272-.572-1.272-1.272s.572-1.272 1.272-1.272c.7 0 1.272.572 1.272 1.272s-.572 1.272-1.272 1.272zm0-6.295c.382 0 .699-.318.699-.7s-.318-.7-.7-.7c-.382 0-.7.318-.7.7s.318.7.7.7zm-1.971 0c.382 0 .7-.318.7-.7s-.318-.7-.7-.7c-.382 0-.7.318-.7.7s.318.7.7.7zm4.006 0c.382 0 .7-.318.7-.7s-.318-.7-.7-.7c-.382 0-.7.318-.7.7-.032.382.286.7.7.7z"></path></svg>