<svg viewBox="0 0 32 32" id="icon-smart-office" xmlns="http://www.w3.org/2000/svg"><path fill="#fff" d="M3.426 4.94l2.802-1.794h19.505l2.802 1.794 2.092 13.975-2.653 2.765H4.62l-2.952-1.756v-2.466L3.424 4.94zm2.205 5.978h8.482V5.836H6.528l-.897 5.082zm12.368 0h8.407l-.971-5.082h-7.137l-.299 5.082zm-13.714 7.81l9.827.411v-5.568H5.63l-1.345 5.157zm13.378.224l9.23.411.86-1.308-1.009-4.484h-8.407l-.673 5.381z"></path><path d="M31.376 17.046L29.508 6.21a4.81 4.81 0 00-4.745-3.998H7.238c-2.354 0-4.372 1.681-4.745 3.998L.625 17.046c-.224 1.42.15 2.84 1.046 3.923a4.891 4.891 0 003.699 1.719h9.827v5.455H9.218c-.448 0-.822.374-.822.822s.374.822.822.822h13.601c.448 0 .822-.374.822-.822s-.374-.822-.822-.822H16.84v-5.455h9.827c1.42 0 2.765-.635 3.699-1.719a5.037 5.037 0 001.009-3.923zm-2.317 2.877a3.184 3.184 0 01-2.429 1.121H5.369c-.934 0-1.831-.411-2.429-1.121s-.86-1.681-.71-2.578L4.098 6.509a3.172 3.172 0 013.139-2.653h17.525a3.173 3.173 0 013.139 2.653l1.868 10.836a3.237 3.237 0 01-.71 2.578z"></path><path d="M18.784 12.114h6.539c.598 0 1.196-.261 1.57-.747a1.99 1.99 0 00.448-1.681l-.486-2.915a2.242 2.242 0 00-2.205-1.868h-5.866a2.05 2.05 0 00-2.055 2.055v3.027c-.037 1.233.897 2.13 2.055 2.13zm-.449-5.082c0-.224.187-.411.411-.411h5.866c.299 0 .523.224.598.486l.486 2.915c.037.187-.037.299-.112.336-.037.075-.15.15-.336.15h-6.539a.415.415 0 01-.411-.411V7.033zM13.179 4.94H7.313a2.243 2.243 0 00-2.205 1.868l-.486 2.915a2.08 2.08 0 00.449 1.681c.411.486.971.747 1.569.747h6.539a2.05 2.05 0 002.055-2.055V7.069a2.044 2.044 0 00-2.055-2.13zm.448 5.119a.415.415 0 01-.411.411H6.677c-.187 0-.261-.112-.336-.15-.037-.075-.112-.187-.112-.336l.486-2.915c.037-.299.299-.486.598-.486h5.866c.224 0 .411.187.411.411v3.064zm14.386 4.409a2.083 2.083 0 00-2.055-1.719h-7.212a2.05 2.05 0 00-2.055 2.055v3.027a2.05 2.05 0 002.055 2.055h7.548c.673 0 1.27-.299 1.719-.785.411-.523.598-1.158.486-1.831l-.486-2.802zm-1.271 3.624c-.075.075-.224.224-.448.224h-7.548a.415.415 0 01-.411-.411v-3.027c0-.224.187-.411.411-.411h7.212c.224 0 .374.15.411.336l.486 2.84c.075.187-.037.374-.112.448zm-13.563-5.343H5.967c-1.009 0-1.868.71-2.055 1.719l-.486 2.84c-.112.635.075 1.308.486 1.831s1.046.785 1.719.785h7.548a2.05 2.05 0 002.055-2.055v-3.027c.037-1.158-.897-2.092-2.055-2.092zm.448 5.119a.415.415 0 01-.411.411H5.668c-.224 0-.374-.15-.449-.224s-.187-.262-.15-.486l.486-2.84a.437.437 0 01.411-.336h7.212c.224 0 .411.187.411.411v3.064z"></path></svg>