<svg viewBox="0 0 32 32" id="icon-support" xmlns="http://www.w3.org/2000/svg"><path fill="#fff" d="M26.44 20.449l5.045-1.121v-6.586l-5.045-1.121-.631-1.261c-.211-.42-.49-.771-.771-1.191l1.542-4.905L20.905.971l-3.503 3.854a9.403 9.403 0 00-2.803 0L11.096.971 5.421 4.264l1.542 4.905c-.561.771-1.051 1.542-1.401 2.382L.517 12.672v6.586l5.045 1.121.631 1.261c.211.42.49.771.771 1.191l-1.542 4.905 5.675 3.293 3.503-3.854c.911.14 1.822.14 2.803 0l3.503 3.854 5.675-3.293-1.542-4.905c.561-.701.981-1.542 1.401-2.382zm-5.605-4.414c0 2.663-2.172 4.835-4.835 4.835s-4.835-2.172-4.835-4.835S13.337 11.2 16 11.2s4.835 2.172 4.835 4.835z"></path><path d="M16 10.43c-.981 0-1.962.28-2.803.771-2.663 1.542-3.643 4.975-2.032 7.707.981 1.752 2.873 2.803 4.905 2.803.981 0 1.962-.28 2.803-.771 2.663-1.542 3.643-4.975 2.032-7.707-1.051-1.752-2.873-2.803-4.905-2.803zm2.032 9.109c-.631.35-1.331.561-2.032.561-1.471 0-2.803-.771-3.503-2.032-1.121-1.962-.42-4.414 1.471-5.535.631-.35 1.331-.561 2.032-.561 1.471 0 2.803.771 3.503 2.032 1.121 1.962.49 4.414-1.471 5.535zm8.408.91l5.045-1.121v-6.586l-5.045-1.121-.631-1.261c-.211-.42-.49-.771-.771-1.191l1.542-4.905L20.905.971l-3.503 3.854a9.403 9.403 0 00-2.803 0L11.096.971 5.421 4.264l1.542 4.905c-.561.771-1.051 1.542-1.401 2.382L.517 12.672v6.586l5.045 1.121.631 1.261c.211.42.49.771.771 1.191l-1.542 4.905 5.675 3.293 3.503-3.854c.911.14 1.822.14 2.803 0l3.503 3.854 5.675-3.293-1.542-4.905a10.135 10.135 0 001.401-2.382zm-5.255 8.619l-3.223-3.503-.42.07c-1.051.14-2.102.14-3.153 0l-.42-.07-3.223 3.503-3.503-2.032 1.401-4.554-.28-.35c-.35-.42-.631-.841-.911-1.261s-.49-.911-.701-1.401l-.14-.42-4.624-1.051v-3.994l4.624-1.051.14-.42c.35-.981.911-1.892 1.542-2.733l.28-.35-1.401-4.554 3.503-2.032 3.223 3.503.42-.07c1.051-.14 2.102-.14 3.153 0l.42.07 3.223-3.503 3.503 2.032-1.401 4.554.28.35c.35.42.631.841.911 1.261s.49.911.701 1.401l.14.42 4.624 1.051v3.994l-4.624 1.051-.14.42c-.35.981-.911 1.892-1.542 2.733l-.28.35 1.401 4.554-3.503 2.032z"></path></svg>