<svg viewBox="0 0 32 32" id="icon-lenovo-careers-hover" xmlns="http://www.w3.org/2000/svg"><path fill="#fff" d="M10.107 2.122a2.718 2.718 0 11-3.844 3.843 2.718 2.718 0 013.844-3.843zm5.811 4.43h-.7v3.294H1.632v10.745h3.294v9.881h6.793v-9.881h3.499v5.805h2.717c4.899 0 8.934-4.035 8.934-8.934 0-6.011-4.899-10.91-10.951-10.91z"></path><path fill="#3e8ddd" d="M24.975 16.514c0-4.405-3.582-7.987-7.987-7.987v1.359c3.664 0 6.669 3.005 6.669 6.669h1.317z"></path><path fill="#3e8ddd" d="M30.697 26.601l-4.364-4.364a10.747 10.747 0 001.606-5.681A10.946 10.946 0 0016.988 5.605c-.617 0-1.194.041-1.77.124v1.853a8.3 8.3 0 011.77-.165c5.023 0 9.139 4.076 9.139 9.098s-4.076 9.139-9.139 9.139c-.617 0-1.194-.082-1.77-.165v1.852a12.41 12.41 0 001.77.123c2.1 0 4.035-.576 5.681-1.606l4.364 4.364c.453.453 1.112.741 1.77.741s1.276-.247 1.77-.741l.082-.082c.453-.453.741-1.112.741-1.77s-.247-1.317-.7-1.77zm-1.317 2.264l-.082.082c-.247.247-.7.247-.988 0l-4.158-4.158c.371-.329.741-.7 1.07-1.07l4.158 4.158a.683.683 0 01.206.494.651.651 0 01-.206.494zM8.178 7.581a3.54 3.54 0 100-7.08 3.54 3.54 0 00-3.54 3.54c0 1.935 1.606 3.54 3.54 3.54zm0-5.27c.947 0 1.729.782 1.729 1.729s-.782 1.729-1.729 1.729c-.947 0-1.729-.782-1.729-1.729s.782-1.729 1.729-1.729z"></path><path fill="#3e8ddd" d="M15.794 11.08c0-1.4-1.153-2.511-2.511-2.511H3.114A2.521 2.521 0 00.603 11.08v8.151c0 1.4 1.153 2.511 2.511 2.511h.7v8.069c0 1.029 1.029 1.647 2.676 1.647.7 0 1.276-.124 1.729-.329.453.247 1.029.371 1.77.371 1.606 0 2.594-.617 2.594-1.606v-8.151h.7c1.4 0 2.511-1.153 2.511-2.511v-8.151zM9.125 29.935v-.123c.041.041.041.082 0 .124zm4.858-10.662c0 .412-.329.7-.7.7h-.741v-7.081h-1.811v16.756c-.412.124-1.194.124-1.606 0v-9.057H7.314v8.975c-.412.123-1.317.123-1.729 0V12.934H3.774v7.04h-.7a.694.694 0 01-.7-.7v-8.193c0-.412.329-.7.7-.7h10.169c.412 0 .7.329.7.7v8.193z"></path></svg>