<svg viewBox="0 0 32 32" id="icon-diversity-hover" xmlns="http://www.w3.org/2000/svg"><path fill="#fff" d="M8.8 4.25a1.8 1.8 0 11-3.6 0 1.8 1.8 0 013.6 0zm9.55.7a1.8 1.8 0 11-3.6 0 1.8 1.8 0 013.6 0zm9.25 1.1a1.8 1.8 0 11-3.6 0 1.8 1.8 0 013.6 0zM11.05 8.5C10.5 8 8 8.05 8 8.05s-3.95.05-4.7.3C2.5 8.55 2 10.5 2 10.5l-.05 7H4.2v12.8h5.5l-.1-12.9 2.35-.1s.05-6-.15-7.3c-.1-1.25-.25-1-.75-1.5zm8.4.45c-1-.2-5.9-.05-5.9-.05l-.05.15-.3.45.7 1.6s.05-.1-.2.65.3 3.5.3 3.5l-1.2 7.05h1l.25 8.15 1.9-.05 1-.05 2 .1.15-8h.8l-.5-4.2 1.95-.2s.25-6.1.1-7.4c-.1-1.35-1-1.5-2-1.7zM30.4 11.2c-.55-1.2-1.65-1.35-1.65-1.35l-5.7-.1-.35.6.35 2.25v17.75l5.4-.05.05-11.7 2.15-.05s.15-1.6.15-1.75c0-.1.15-4.4-.4-5.6z"></path><path fill="#498ac9" d="M19.35 8.5h-5.7c-.25 0-.45.05-.65.1l.25.85c.15-.05.3-.05.45-.05h5.75c.45 0 .85.2 1.15.5s.45.75.45 1.2l-.2 6.5h-1l-.35-2.5.35-2.95c.05-.4-.1-.8-.35-1.15-.25-.3-.65-.5-1.1-.5h-3.75c-.4 0-.8.2-1.1.5-.25.3-.4.7-.35 1.15l.35 2.95-1.05 7.6h1.1l.45 7.7.9-.05-.45-7.65h1.6v7.65h.9V22.7h1.5l-.45 7.65.9.05.45-7.7h1.1l-.55-4.2h1.75l.2-7.35c.05-.7-.2-1.35-.7-1.85s-1.15-.8-1.85-.8zm-5.15 3.1c.1-.1.25-.2.4-.2h3.75c.15 0 .3.05.4.2.1.1.15.25.15.45l-.3 2.6h-4.2l-.3-2.6a.48.48 0 01.1-.45zm-.7 10.2l.9-6.25h4.25l.85 6.25h-6zm3-14.4c1.35 0 2.45-1.1 2.45-2.45S17.85 2.5 16.5 2.5s-2.45 1.1-2.45 2.45 1.1 2.45 2.45 2.45zm0-4c.85 0 1.55.7 1.55 1.55s-.7 1.55-1.55 1.55c-.85 0-1.55-.7-1.55-1.55s.7-1.55 1.55-1.55zM6.6 19.15h.9v11.2h-.9v-11.2z"></path><path fill="#498ac9" d="M9.45 7.6H4.6c-1.6 0-2.95 1.3-2.95 2.95v7.35H3.9v12.45h.9v-19.5h-.9V17H2.55v-6.45c0-1.15.9-2.05 2.05-2.05h4.9c1.15 0 2.05.9 2.05 2.05V17H10.2v-6.15h-.9v19.5h.9V17.9h2.25v-7.35c-.05-1.6-1.35-2.95-3-2.95zm-2.4-.9C8.4 6.7 9.5 5.6 9.5 4.25S8.4 1.8 7.05 1.8 4.6 2.9 4.6 4.25 5.65 6.7 7.05 6.7zm0-4c.85 0 1.55.7 1.55 1.55S7.9 5.8 7.05 5.8c-.85 0-1.55-.7-1.55-1.55-.05-.85.65-1.55 1.55-1.55zm18.3 17.75h.9v9.9h-.9v-9.9z"></path><path fill="#498ac9" d="M28.25 9.4h-4.9c-.3 0-.65.05-.95.15l.3.85c.2-.05.45-.1.65-.1h4.9c1.15 0 2.05.9 2.05 2.05v5.7h-1.35v-5.4h-.9v17.7h.9v-11.4h2.25v-6.6c0-1.6-1.35-2.95-2.95-2.95zm-2.45-.9c1.35 0 2.45-1.1 2.45-2.45S27.15 3.6 25.8 3.6s-2.45 1.1-2.45 2.45 1.1 2.45 2.45 2.45zm0-4c.85 0 1.55.7 1.55 1.55s-.7 1.55-1.55 1.55c-.85 0-1.55-.7-1.55-1.55s.7-1.55 1.55-1.55z"></path><path fill="#498ac9" d="M22.65 12.65h.9v17.7h-.9v-17.7z"></path></svg>