<svg viewBox="0 0 32 32" id="icon-lenovo-investors" xmlns="http://www.w3.org/2000/svg"><path fill="#fff" d="M4.68 23.587h4.682v5.037H4.68v-5.037zm7.231-5.631h4.801v10.668h-4.801V17.956zm7.112-7.349h4.801v17.78h-4.801v-17.78zm7.052-7.29h4.682v25.011h-4.682V3.317z"></path><path d="M18.371 8.296c0 .356.237.593.593.593s.593-.237.593-.593V3.555c0-.059 0-.178-.059-.237a.71.71 0 00-.296-.296c-.059-.059-.178-.059-.237-.059h-4.741c-.356 0-.593.237-.593.593s.237.593.593.593h3.319L.77 20.922a.572.572 0 000 .829.638.638 0 00.415.178.537.537 0 00.415-.178L18.373 4.978v3.319zm5.334 1.778h-4.741c-.356 0-.593.237-.593.593v17.78c0 .356.237.593.593.593h4.741c.356 0 .593-.237.593-.593v-17.78a.594.594 0 00-.593-.593zm-.593 17.779h-3.556V11.258h3.556v16.595zm-6.519-10.667h-4.741c-.356 0-.593.237-.593.593v10.668c0 .356.237.593.593.593h4.741c.356 0 .593-.237.593-.593V17.779a.594.594 0 00-.593-.593zM16 27.853h-3.556v-9.482H16v9.482zm-6.52-4.741H4.739c-.356 0-.593.237-.593.593v4.741c0 .356.237.593.593.593H9.48c.356 0 .593-.237.593-.593v-4.741a.594.594 0 00-.593-.593zm-.592 4.741H5.332v-3.556h3.556v3.556zM30.817 2.962h-4.741c-.356 0-.593.237-.593.593v24.892c0 .356.237.593.593.593h4.741c.356 0 .593-.237.593-.593V3.555a.594.594 0 00-.593-.593zm-.593 24.891h-3.556V4.146h3.556v23.707z"></path></svg>