<svg viewBox="0 0 32 32" id="icon-lenovo-newsroom-hover" xmlns="http://www.w3.org/2000/svg"><path fill="#fff" d="M7.25 1.501v9.786H2.751v15.285c0 2.357 1.929 4.214 4.214 4.214h22.071V1.501H7.25z"></path><path fill="#3e8ddd" d="M28.322.501h-20A1.921 1.921 0 006.393 2.43v7.928H2.536c-.214 0-.429.072-.572.214s-.214.357-.214.572v15.285c0 2.5 1.143 3.714 2.143 4.286 1.071.643 2.286.786 2.928.786h21.5a1.921 1.921 0 001.929-1.929V2.429A1.921 1.921 0 0028.321.5zM6.393 29.929c-.5-.072-1.143-.143-1.643-.5-.929-.572-1.357-1.5-1.357-2.928v-14.5h3V29.93zm22.286-.357c0 .214-.143.357-.357.357h-20c-.214 0-.357-.143-.357-.357V2.429c0-.214.143-.357.357-.357h20c.214 0 .357.143.357.357v27.143zm-7.572-5.285h-9.071c-.429 0-.786.357-.786.786s.357.786.786.786h9.071c.429 0 .786-.357.786-.786s-.357-.786-.786-.786zm0-3.929h-9.071c-.429 0-.786.357-.786.786s.357.786.786.786h9.071c.429 0 .786-.357.786-.786s-.357-.786-.786-.786zm3.643 0a.793.793 0 00-.786.786v3.929c0 .429.357.786.786.786s.786-.357.786-.786v-3.929a.793.793 0 00-.786-.786zm-12.714-2.5h12.571c.429 0 .786-.357.786-.786s-.357-.786-.786-.786H12.036c-.429 0-.786.357-.786.786s.357.786.786.786zM24.75 6.144H12.036a.793.793 0 00-.786.786v6.071c0 .429.357.786.786.786H24.75a.793.793 0 00.786-.786V6.93a.793.793 0 00-.786-.786zm-.857 6H12.822V7.715h11.071v4.429z"></path></svg>