<svg viewBox="0 0 32 32" id="icon-lenovo-culture" xmlns="http://www.w3.org/2000/svg"><path fill="#fff" d="M7.356 23.392s.894-.298 2.146-1.431 1.848-1.729 3.159-1.908c1.312-.119 7.929 0 7.929 0s.834-1.55 1.669-1.669 1.848.358 1.848.358.536-.596 1.729-.418c1.192.178 1.252.596 1.252.596s1.132-1.192 1.967-.834 1.848 1.55 1.848 1.55l-7.452 7.631-8.466 2.504H7.414v-6.379zM25.479 9.441c0 4.577-3.71 8.287-8.287 8.287s-8.287-3.71-8.287-8.287c0-4.577 3.71-8.287 8.287-8.287s8.287 3.71 8.287 8.287z"></path><path d="M17.192 18.384c4.948 0 8.943-3.994 8.943-8.943S22.141.498 17.192.498 8.249 4.492 8.249 9.441c0 4.948 4.054 8.943 8.943 8.943zm2.623-1.609c.775-.894 1.372-2.206 1.788-3.697h2.504c-.954 1.669-2.444 3.041-4.293 3.697zm5.127-7.334c0 .834-.119 1.61-.358 2.385h-2.802c.119-.775.178-1.55.178-2.385s-.06-1.61-.178-2.385h2.802a8.28 8.28 0 01.358 2.385zm-.834-3.576h-2.504c-.358-1.55-1.014-2.802-1.788-3.697 1.848.656 3.339 2.027 4.293 3.697zm-6.32-3.756c1.073.418 2.027 1.848 2.504 3.756h-2.504V2.109zm0 4.948h2.802c.119.775.178 1.55.178 2.385s-.06 1.61-.178 2.385h-2.802V7.058zm0 5.961h2.504c-.536 1.967-1.431 3.339-2.504 3.756v-3.756zm-1.192 3.816c-1.073-.418-2.027-1.848-2.504-3.756h2.504v3.756zm0-5.008h-2.802c-.119-.775-.178-1.55-.178-2.385s.06-1.61.178-2.385h2.802v4.769zm0-9.717v3.756h-2.504c.536-1.908 1.431-3.339 2.504-3.756zm-1.967.059c-.775.894-1.371 2.206-1.788 3.697h-2.504a7.953 7.953 0 014.293-3.697zM9.442 9.441c0-.834.119-1.61.358-2.385h2.802c-.119.775-.178 1.55-.178 2.385s.06 1.61.178 2.385H9.8c-.178-.716-.358-1.55-.358-2.385zm3.399 3.577c.358 1.55 1.014 2.802 1.788 3.697a7.956 7.956 0 01-4.293-3.697h2.504zM5.269 27.923c0-.656-.536-1.192-1.192-1.192s-1.192.536-1.192 1.192c0 .656.536 1.192 1.192 1.192s1.192-.536 1.192-1.192zm26.052-8.764l-.596-.596c-.894-.894-2.385-1.014-3.398-.358a2.709 2.709 0 00-2.981 0c-1.073-.656-2.504-.536-3.398.358l-1.014 1.014h-6.916a4.917 4.917 0 00-3.458 1.431L8.248 22.32a.767.767 0 01-.596.238v-1.192c0-.358-.238-.596-.596-.596H1.094c-.358 0-.596.238-.596.596s.238.596.596.596h5.365v8.346H1.094c-.358 0-.596.238-.596.596s.238.596.596.596h5.962c.358 0 .596-.238.596-.596v-.596h7.332l8.346-2.385c.119 0 .178-.06.238-.178l7.75-7.75c.238-.178.238-.596 0-.834zm-9.538.298a1.465 1.465 0 011.61-.298l-2.027 2.027v-.954c0-.119-.06-.178-.06-.298l.477-.477zm2.981 0a1.465 1.465 0 011.61-.298l-4.054 4.054h-1.312l3.756-3.756zm-1.908 7.392l-8.108 2.325H7.654v-5.365c.536 0 1.073-.238 1.431-.596l1.312-1.312a3.697 3.697 0 012.623-1.073h7.154a1.756 1.756 0 01-1.788 1.788h-3.279c-.477 0-.894.418-.894.894s.418.894.894.894h7.452c.178 0 .298-.06.418-.178l4.769-4.769c.536-.536 1.55-.536 2.146 0l.178.178-7.214 7.214z"></path></svg>