<svg viewBox="0 0 32 32" id="icon-home" xmlns="http://www.w3.org/2000/svg"><path d="M25.341 27.792a.252.252 0 01-.234.234h-5.021v-5.079a.898.898 0 00-.876-.876h-6.305a.898.898 0 00-.876.876v5.079H7.008a.252.252 0 01-.234-.234v-9.049l-1.693 1.401v7.706c0 1.109.876 1.985 1.985 1.985h18.039a1.969 1.969 0 001.985-1.985v-7.764l-1.751-1.401v9.107zm-11.618.292v-4.262h4.67v4.262h-4.67z"></path><path d="M30.828 14.19L17.459 2.689c-.759-.642-2.043-.642-2.802 0L1.288 14.19c-.409.35-.642.817-.642 1.343s.234 1.051.584 1.401l1.401 1.284c.409.35.876.525 1.459.525.525 0 .992-.175 1.343-.467l10.333-8.465c.117-.117.467-.117.642 0l10.099 8.29c.759.642 2.043.642 2.802 0l1.518-1.168c.409-.35.701-.817.701-1.343-.058-.525-.292-1.051-.701-1.401zm-1.109 1.401l-1.518 1.168c-.175.117-.525.117-.642 0L17.46 8.528c-.759-.642-2.043-.642-2.802 0L4.325 16.993c-.058.058-.175.058-.234.058a.442.442 0 01-.292-.117L2.398 15.65s-.058-.058-.058-.117.058-.058.058-.117L15.767 3.915c.058-.058.175-.117.292-.117s.234.058.292.117L29.72 15.416c.058.117.058.117 0 .175.058-.058.058-.058 0 0z"></path><path d="M19.211 16.759c0-1.693-1.401-3.094-3.094-3.094s-3.094 1.401-3.094 3.094 1.401 3.094 3.094 3.094c1.693.058 3.094-1.343 3.094-3.094zm-4.495 0c0-.759.642-1.401 1.401-1.401s1.401.642 1.401 1.401a1.42 1.42 0 01-1.401 1.401c-.817 0-1.401-.584-1.401-1.401z"></path></svg>