<svg viewBox="0 0 32 32" id="icon-dcg-network" xmlns="http://www.w3.org/2000/svg"><path fill="#fff" d="M27.655 27.982H4.518a2.908 2.908 0 01-2.9-2.9v-5.509c0-1.624 1.334-2.9 2.9-2.9h23.137c1.624 0 2.9 1.334 2.9 2.9v5.509c0 1.566-1.276 2.9-2.9 2.9z"></path><path d="M23.77 21.372h1.914v1.914H23.77v-1.914zm-3.827 0h1.914v1.914h-1.914v-1.914zm-3.885 0h1.914v1.914h-1.914v-1.914z"></path><path d="M27.655 15.514H8.287V9.715H6.373v5.799H4.401a3.885 3.885 0 00-3.885 3.885v5.799a3.885 3.885 0 003.885 3.885v1.914h1.914v-1.914h19.368v1.914h1.914v-1.914a3.885 3.885 0 003.885-3.885v-5.799c.058-2.145-1.682-3.885-3.827-3.885zm1.972 9.685c0 1.044-.87 1.914-1.914 1.914H4.402a1.931 1.931 0 01-1.914-1.914V19.4c0-1.044.87-1.914 1.914-1.914h23.253c1.044 0 1.914.87 1.914 1.914v5.799zM12.115 4.961l1.392-1.392a8.716 8.716 0 00-12.352 0l1.392 1.392c2.61-2.667 6.959-2.667 9.568 0z"></path><path d="M3.88 6.295l1.392 1.392c1.16-1.16 2.958-1.16 4.117 0l1.392-1.392a4.973 4.973 0 00-6.901 0z"></path></svg>