<svg viewBox="0 0 32 32" id="icon-dcg-sdi" xmlns="http://www.w3.org/2000/svg"><path fill="#fff" d="M24.925 8.645c-.907-3.834-4.531-6.762-8.923-6.762S7.985 4.741 7.079 8.645c-3.276.348-5.855 3.137-5.855 6.483a6.47 6.47 0 006.483 6.483c2.301 0 4.253-1.185 5.438-2.928.907.279 1.812.418 2.789.418s1.952-.14 2.789-.418c1.185 1.742 3.137 2.928 5.438 2.928a6.47 6.47 0 006.483-6.483c.14-3.346-2.44-6.135-5.716-6.483zm-6.692 18.962a2.23 2.23 0 11-4.461 0 2.23 2.23 0 014.461 0z"></path><path d="M24.158 22.169a7.416 7.416 0 01-4.043-1.185c-.349-.209-.418-.627-.209-.976s.627-.418.976-.209a6.02 6.02 0 003.276.976 5.92 5.92 0 005.925-5.925c0-2.928-2.161-5.438-5.019-5.855-.279-.07-.488-.209-.558-.418-1.324-3.486-4.74-5.855-8.504-5.855s-7.18 2.37-8.504 5.855c-.07.209-.279.418-.558.418-2.858.418-5.019 2.928-5.019 5.855a5.92 5.92 0 005.925 5.925 6.017 6.017 0 003.276-.976c.348-.209.767-.14.976.209s.14.767-.209.976a7.416 7.416 0 01-4.043 1.185 7.319 7.319 0 01-7.32-7.32c0-3.486 2.509-6.483 5.855-7.18 1.604-3.834 5.438-6.413 9.62-6.413s8.017 2.579 9.62 6.413c3.346.697 5.855 3.695 5.855 7.18a7.319 7.319 0 01-7.32 7.32z"></path><path d="M16.001 25.864c-.418 0-.697-.279-.697-.697v-9.271c0-.418.279-.697.697-.697s.697.279.697.697v9.271a.698.698 0 01-.697.697z"></path><path d="M16.001 30.744c-1.742 0-3.137-1.394-3.137-3.137s1.394-3.137 3.137-3.137a3.124 3.124 0 013.137 3.137c0 1.673-1.394 3.137-3.137 3.137zm0-4.88c-.976 0-1.742.767-1.742 1.742s.767 1.742 1.742 1.742c.976 0 1.742-.767 1.742-1.742s-.767-1.742-1.742-1.742z"></path><path d="M13.562 28.304H3.593c-.418 0-.697-.279-.697-.697s.279-.697.697-.697h9.969c.418 0 .697.279.697.697a.698.698 0 01-.697.697zm14.918 0H18.442c-.418 0-.697-.279-.697-.697s.279-.697.697-.697h9.969c.418 0 .697.279.697.697.07.349-.279.697-.627.697z"></path></svg>