<svg viewBox="0 0 32 32" id="icon-software" xmlns="http://www.w3.org/2000/svg"><path fill="#fff" d="M16 3C8.812 3 3 8.812 3 16s5.812 13 13 13 13-5.812 13-13S23.188 3 16 3zm0 14.562c-.875 0-1.562-.687-1.562-1.562s.687-1.562 1.562-1.562 1.562.687 1.562 1.562-.687 1.562-1.562 1.562z"></path><path d="M16 2C8.25 2 2 8.25 2 16s6.25 14 14 14 14-6.25 14-14S23.75 2 16 2zm0 27C8.812 29 3 23.188 3 16S8.812 3 16 3s13 5.812 13 13-5.812 13-13 13z"></path><path d="M16 10.813c-2.875 0-5.187 2.312-5.187 5.187s2.312 5.187 5.187 5.187 5.187-2.312 5.187-5.187-2.312-5.187-5.187-5.187zm0 9.499c-2.375 0-4.312-1.938-4.312-4.312s1.938-4.312 4.312-4.312 4.312 1.938 4.312 4.312-1.938 4.312-4.312 4.312z"></path><path d="M16 13.5c-1.375 0-2.5 1.125-2.5 2.5s1.125 2.5 2.5 2.5 2.5-1.125 2.5-2.5-1.125-2.5-2.5-2.5zm0 4.062c-.875 0-1.562-.687-1.562-1.562s.687-1.562 1.562-1.562 1.562.687 1.562 1.562-.687 1.562-1.562 1.562z"></path></svg>