<svg viewBox="0 0 32 32" id="icon-dcg-solutions" xmlns="http://www.w3.org/2000/svg"><path fill="#fff" d="M26.313 11.291c0-5.663-4.59-10.254-10.313-10.254S5.687 5.627 5.687 11.291c0 3.875 2.146 7.273 5.365 9.002v3.159c0 1.014.775 1.788 1.788 1.788h6.319a1.756 1.756 0 001.788-1.788v-3.159c3.219-1.788 5.365-5.127 5.365-9.002z"></path><path d="M4.077 11.232c0-.358-.238-.596-.596-.596H1.096c-.358 0-.596.238-.596.596s.238.596.596.596h2.385c.358 0 .596-.238.596-.596zM6.76 2.826a.645.645 0 00.417.179c.179 0 .298-.06.418-.179a.576.576 0 000-.834l-.834-.834c-.238-.238-.596-.238-.834 0s-.238.596 0 .834l.834.834zm-3.935 1.49l2.087 1.192c.119.06.179.06.298.06a.71.71 0 00.536-.298c.179-.298.06-.656-.238-.834L3.421 3.244c-.298-.179-.656-.06-.834.238s-.06.656.238.834zm2.862 12.877c-.179-.298-.536-.358-.834-.238l-2.087 1.192c-.298.179-.358.536-.238.834a.625.625 0 00.536.298c.119 0 .179 0 .298-.06l2.087-1.192c.298-.179.418-.536.238-.834zm25.217-6.557h-2.385c-.358 0-.596.238-.596.596s.238.596.596.596h2.385c.358 0 .596-.238.596-.596a.597.597 0 00-.596-.596zM25.3 19.697c-.238-.238-.596-.238-.834 0s-.238.596 0 .834l.834.834a.645.645 0 00.418.179c.179 0 .298-.06.418-.179a.576.576 0 000-.834l-.834-.834zm-18.54 0l-.834.834a.576.576 0 000 .834.645.645 0 00.417.179c.179 0 .298-.06.418-.179l.834-.834c.238-.238.238-.596 0-.834s-.596-.238-.834 0zM24.883 3.004c.179 0 .298-.06.418-.179l.834-.834c.238-.238.238-.596 0-.834s-.596-.238-.834 0l-.834.834a.576.576 0 000 .834.542.542 0 00.418.179zM2.945 15.405l1.132-.298c.298-.06.536-.418.417-.716-.06-.298-.418-.536-.716-.418l-1.132.298c-.298.06-.536.418-.417.716.06.238.298.418.596.418h.119zm26.171-8.287l-1.132.298c-.298.06-.536.418-.418.716.06.238.298.418.596.418h.179l1.132-.298c.298-.06.536-.418.418-.716s-.477-.477-.775-.418zM2.647 8.31l1.132.298h.179c.238 0 .477-.179.596-.418.06-.298-.119-.656-.417-.716l-1.132-.298c-.298-.06-.656.119-.716.417-.179.298 0 .596.358.716zm26.767 5.902l-1.132-.298c-.298-.06-.656.119-.715.418s.119.656.418.716l1.132.298h.179c.238 0 .477-.179.596-.418.06-.298-.179-.596-.477-.716zm-.179 3.994l-2.087-1.192c-.298-.179-.656-.06-.834.238s-.06.656.238.834l2.087 1.192c.119.06.179.06.298.06a.708.708 0 00.536-.298c.119-.298.06-.656-.238-.834zM26.373 5.27a.625.625 0 00.536.298c.119 0 .179 0 .298-.06l2.087-1.192c.298-.179.358-.536.238-.834-.179-.298-.536-.358-.834-.238l-2.087 1.192c-.358.238-.418.596-.238.834zM16 .501C10.098.501 5.269 5.33 5.269 11.232c0 3.637 1.848 7.034 4.889 9.002a.952.952 0 01.477.834v2.683c0 .775.477 1.431 1.192 1.669v1.312h-.06c-.358 0-.596.298-.536.656 0 .298.298.536.596.536v.596h-.06c-.358 0-.596.298-.536.656 0 .298.298.536.596.536h.12c.238 1.014 1.192 1.788 2.325 1.788h3.577a2.392 2.392 0 002.385-2.385h.06c.358 0 .596-.298.536-.656 0-.298-.298-.536-.596-.536v-.596h.06c.358 0 .596-.298.536-.656 0-.298-.298-.536-.596-.536v-.715a1.736 1.736 0 001.192-1.669v-2.683c0-.298.179-.656.477-.834 3.1-1.967 4.889-5.365 4.889-9.002C26.732 5.33 21.963.501 16.002.501zm1.789 29.807h-3.577c-.477 0-.894-.298-1.073-.715l5.842-.418c-.06.656-.536 1.132-1.192 1.132zm1.192-2.265l-5.961.418v-.596l5.961-.418v.596zm0-1.789l-5.961.418V25.54h5.961v.715zm2.206-6.974a2.123 2.123 0 00-1.014 1.848v2.683c0 .358-.238.596-.596.596h-2.981v-8.108l3.398-3.398c.179-.179.238-.418.119-.656s-.298-.358-.536-.358h-7.154c-.238 0-.477.119-.536.358-.119.238-.06.477.119.656l3.398 3.398v8.108h-2.981c-.358 0-.596-.238-.596-.596v-2.683c0-.715-.358-1.431-1.014-1.848-2.742-1.788-4.352-4.769-4.352-7.988 0-5.246 4.292-9.538 9.538-9.538s9.538 4.292 9.538 9.538c0 3.219-1.61 6.2-4.352 7.988zM16 15.166l-2.146-2.146h4.292L16 15.166zm0-11.088c-3.935 0-7.154 3.219-7.154 7.154 0 .358.238.596.596.596s.596-.238.596-.596c0-3.279 2.683-5.961 5.961-5.961.358 0 .596-.238.596-.596a.597.597 0 00-.596-.596z"></path></svg>