<svg viewBox="0 0 32 32" id="icon-dcg-storage" xmlns="http://www.w3.org/2000/svg"><path fill="#fff" d="M17.825 29.227a1.791 1.791 0 11-3.582 0 1.791 1.791 0 013.582 0zm5.443-4.134H8.801c-.758 0-1.378-.62-1.378-1.378V2.359c0-.758.62-1.378 1.378-1.378h14.467c.758 0 1.378.62 1.378 1.378v21.356c0 .758-.62 1.378-1.378 1.378z"></path><path d="M24.645 25.506H7.422c-.413 0-.689-.275-.689-.689V1.188c0-.413.275-.689.689-.689h17.223c.413 0 .689.275.689.689v23.629a.69.69 0 01-.689.689zM8.112 24.129h15.844V1.878H8.112v22.251z"></path><path d="M21.683 6.906H7.354c-.413 0-.689-.275-.689-.689s.275-.689.689-.689h14.329c.413 0 .689.275.689.689s-.275.689-.689.689zm0 4.822H7.354c-.413 0-.689-.275-.689-.689s.275-.689.689-.689h14.329c.413 0 .689.275.689.689s-.275.689-.689.689zm0 4.823H7.354c-.413 0-.689-.275-.689-.689s.275-.689.689-.689h14.329c.413 0 .689.275.689.689s-.275.689-.689.689zm.551-12.332h-1.722c-.413 0-.689-.275-.689-.689s.275-.689.689-.689h1.722c.413 0 .689.275.689.689s-.344.689-.689.689zm0 5.099h-1.722c-.413 0-.689-.275-.689-.689s.275-.689.689-.689h1.722c.413 0 .689.275.689.689s-.344.689-.689.689zm0 5.097h-1.722c-.413 0-.689-.275-.689-.689s.275-.689.689-.689h1.722c.413 0 .689.275.689.689s-.344.689-.689.689zm-6.2 17.085c-1.309 0-2.342-1.033-2.342-2.342s1.033-2.342 2.342-2.342c1.309 0 2.342 1.033 2.342 2.342S17.274 31.5 16.034 31.5zm0-3.238c-.482 0-.964.413-.964.964 0 .482.413.964.964.964s.964-.413.964-.964c-.069-.551-.482-.964-.964-.964z"></path><path d="M14.381 29.915H6.252c-.413 0-.689-.275-.689-.689s.275-.689.689-.689h8.129c.413 0 .689.275.689.689s-.275.689-.689.689zm11.367 0h-8.129c-.413 0-.689-.275-.689-.689s.275-.689.689-.689h8.129c.413 0 .689.275.689.689s-.275.689-.689.689z"></path></svg>