<svg viewBox="0 0 32 32" id="icon-user-account" xmlns="http://www.w3.org/2000/svg"><path d="M15.999 31.5c-9.3 0-12.256-1.947-12.328-2.019l-.288-.216-.072-.288c-.793-3.821-.216-6.921 1.731-9.3 3.605-4.47 10.67-4.47 10.958-4.47s7.281.072 10.958 4.47c1.947 2.379 2.524 5.479 1.731 9.3l-.072.288-.288.216c-.072.072-3.028 2.019-12.328 2.019zM4.896 28.256c.865.433 3.965 1.586 11.174 1.586 7.138 0 10.31-1.226 11.174-1.586.577-3.1.072-5.695-1.514-7.57-3.1-3.821-9.588-3.893-9.66-3.893s-6.56.072-9.66 3.893c-1.586 1.874-2.091 4.47-1.514 7.57zm11.103-14.275c-.288 0-.865-.072-1.009-.072h-.072c-2.235-.36-4.038-2.235-4.686-4.902-.865-3.677-.216-6.417 1.947-7.714C13.477.5 15.567.5 15.928.5c.433 0 2.451.072 3.749.793 2.162 1.298 2.812 4.038 1.947 7.714-.649 2.667-2.379 4.542-4.686 4.902h-.072c0 .072-.577.072-.865.072zm-.793-1.657c.288 0 .721.072.793.072.144 0 .505-.072.793-.072 1.586-.288 2.812-1.658 3.316-3.677.433-1.731.793-4.758-1.226-5.984-.649-.433-1.947-.577-2.884-.577s-2.235.216-2.884.577c-2.019 1.226-1.658 4.253-1.226 5.984.505 2.019 1.731 3.388 3.316 3.677z"></path></svg>