<svg viewBox="0 0 32 32" id="icon-cart" xmlns="http://www.w3.org/2000/svg"><path d="M31.332 7.437c-.141-.21-.351-.281-.631-.281H8.241L7.259 1.12H1.293c-.421 0-.772.351-.772.772s.351.772.772.772h4.562L8.663 19.93c.07.351.421.631.772.631h19.302a.764.764 0 00.772-.631l1.895-11.862c.141-.21.07-.421-.07-.631zM14.768 19.088h-4.562l-.702-4.352h5.264v4.352zm0-5.966H9.223L8.521 8.77h6.247v4.352zm7.159 5.966h-5.615v-4.352h5.615v4.352zm0-5.966h-5.615V8.77h5.615v4.352zm6.177 5.966h-4.562v-4.352h5.264l-.702 4.352zm.982-5.966h-5.545V8.77h6.247l-.702 4.352zm-5.193 9.616c-2.246 0-4.071 1.825-4.071 4.071s1.825 4.071 4.071 4.071c2.246 0 4.071-1.825 4.071-4.071s-1.825-4.071-4.071-4.071zm0 6.527c-1.333 0-2.457-1.123-2.457-2.457s1.123-2.457 2.457-2.457c1.333 0 2.457 1.123 2.457 2.457s-1.123 2.457-2.457 2.457zm-9.827-6.527c-2.246 0-4.071 1.825-4.071 4.071s1.825 4.071 4.071 4.071c2.246 0 4.071-1.825 4.071-4.071s-1.825-4.071-4.071-4.071zm0 6.527c-1.333 0-2.457-1.123-2.457-2.457s1.123-2.457 2.457-2.457c1.333 0 2.457 1.123 2.457 2.457s-1.123 2.457-2.457 2.457z"></path></svg>