<svg viewBox="0 0 32 32" id="icon-contact" xmlns="http://www.w3.org/2000/svg"><path d="M28.415 11.495C27.635 5.111 22.527.5 16 .5h-.213C9.19.5 4.153 5.111 3.372 11.566c-1.347.568-2.27 2.128-2.27 3.973v.78c0 2.341 1.49 4.185 3.334 4.185h.851c.426 1.064 1.419 1.844 2.483 1.844 1.49 0 2.696-1.347 2.696-3.05v-6.739c0-1.703-1.206-3.05-2.696-3.05-1.064 0-2.057.709-2.483 1.844h-.213c.851-5.462 5.108-9.222 10.783-9.222h.212c5.675 0 10.002 3.76 10.783 9.222h-.142c-.426-1.064-1.419-1.844-2.483-1.844-1.49 0-2.696 1.347-2.696 3.05v6.739c0 1.703 1.206 3.05 2.696 3.05.851 0 1.632-.497 2.128-1.277-.851 2.696-2.696 4.753-5.037 6.03-.426-.497-1.064-.851-1.773-.851-.212 0-.426 0-.638.071-.922.284-1.844.355-2.767.355-1.347 0-2.412 1.064-2.412 2.412S14.792 31.5 16.14 31.5c1.419 0 2.838-.212 4.114-.568 1.064-.284 1.773-1.347 1.703-2.412a12.348 12.348 0 006.314-8.158c1.49-.426 2.625-2.128 2.625-4.114v-.78c-.142-1.844-1.135-3.405-2.483-3.973zM6.423 12.914l.142-.638c.142-.638.568-1.135 1.064-1.135.568 0 1.064.709 1.064 1.49v6.739c0 .78-.497 1.49-1.064 1.49-.497 0-.993-.497-1.064-1.135l-.142-.638H4.295c-.922 0-1.703-1.206-1.703-2.625v-.78c0-1.419.78-2.625 1.703-2.625h2.128zm13.266 16.6c-1.206.355-2.412.497-3.689.497-.426 0-.78-.355-.78-.78s.355-.78.78-.78c1.135 0 2.199-.142 3.263-.426h.212c.355 0 .638.212.78.568.071.355-.142.851-.568.922zm9.506-13.124c0 1.419-.78 2.625-1.703 2.625h-2.128l-.142.638c-.142.638-.568 1.135-1.064 1.135-.568 0-1.064-.638-1.064-1.49v-6.739c0-.78.497-1.49 1.064-1.49.497 0 .993.497 1.064 1.135l.142.638h2.128c.922 0 1.703 1.206 1.703 2.625v.922z"></path></svg>