<svg viewBox="0 0 248 32" id="icon-lenovo-pro-plain" xmlns="http://www.w3.org/2000/svg"><path class="bnsect_1" d="M4.066 1.78h2.131v26.382h16.608v1.911H4.066V1.78zm19.181 18.078v-.073c0-5.953 4.189-10.729 9.774-10.729 5.806 0 9.48 4.703 9.48 10.803 0 .368 0 .514-.074.808H25.304c.368 5.144 4.042 8.157 8.084 8.157 3.16 0 5.365-1.396 7.055-3.234l1.396 1.249c-2.131 2.278-4.556 3.895-8.525 3.895-5.365-.147-10.068-4.483-10.068-10.876zm17.123-1.029c-.294-4.189-2.645-8.01-7.422-8.01-4.115 0-7.202 3.454-7.569 8.01h14.992zm5.364-9.333h1.984v3.822c1.396-2.425 3.674-4.336 7.422-4.336 5.218 0 8.23 3.528 8.23 8.525v12.64h-1.984V17.875c0-4.262-2.351-7.055-6.541-7.055-4.042 0-7.128 3.086-7.128 7.349v11.905h-1.984V9.497zm20.724 10.362v-.073c0-5.806 4.483-10.803 10.656-10.803 6.1 0 10.582 4.924 10.582 10.729v.073c0 5.806-4.483 10.803-10.656 10.803-6.1 0-10.582-4.924-10.582-10.729zm19.107 0v-.073c0-4.997-3.748-8.966-8.525-8.966-4.924 0-8.378 3.968-8.378 8.819v.073c0 4.997 3.748 8.966 8.525 8.966 4.85.073 8.378-3.968 8.378-8.819zm2.131-10.362h2.278l7.79 18.372 7.863-18.372h2.205l-9.259 20.797h-1.69L87.697 9.496zm20.209 10.362v-.073c0-5.806 4.483-10.803 10.656-10.803 6.1 0 10.582 4.924 10.582 10.729v.073c0 5.806-4.483 10.803-10.656 10.803-6.1 0-10.582-4.924-10.582-10.729zm19.108 0v-.073c0-4.997-3.748-8.966-8.525-8.966-4.924 0-8.378 3.968-8.378 8.819v.073c0 4.997 3.748 8.966 8.525 8.966 4.85.073 8.378-3.968 8.378-8.819z"></path><path class="bnsect_2" fill="#3e8ddd" d="M132.524 1.78h12.199c7.128 0 11.758 3.674 11.758 9.921v.073c0 6.687-5.144 10.215-12.126 10.215h-3.895v8.084h-7.937V1.78zm11.612 14.11c2.719 0 4.483-1.47 4.483-3.748v-.073c0-2.425-1.764-3.674-4.556-3.674h-3.748v7.496h3.821zm13.3-14.11h13.375c4.336 0 7.349 1.102 9.186 3.013 1.69 1.69 2.499 3.822 2.499 6.614v.073c0 4.336-2.278 7.202-5.806 8.745l6.761 9.847h-9.039l-5.732-8.598h-3.454v8.598h-7.863V1.779zm13.008 13.595c2.645 0 4.189-1.323 4.189-3.38v-.073c0-2.278-1.69-3.38-4.262-3.38h-5.144v6.834h5.218z"></path><path class="bnsect_2" fill="#3e8ddd" d="M182.937 16.037v-.073c0-8.157 6.541-14.698 15.285-14.698s15.212 6.541 15.212 14.624v.073c0 8.157-6.541 14.698-15.285 14.698s-15.212-6.467-15.212-14.624zm22.414 0v-.073c0-4.115-2.939-7.643-7.202-7.643-4.336 0-7.202 3.454-7.202 7.569v.073c0 4.115 2.939 7.643 7.276 7.643 4.262 0 7.128-3.454 7.128-7.569zm38.067-3.748l-15.359 15.359c-.294.294-.735.514-1.249.514s-.882-.147-1.249-.514l-8.892-8.892c-.294-.294-.514-.735-.514-1.249s.147-.882.514-1.249l2.425-2.425a1.773 1.773 0 011.249-.514c.441 0 .882.147 1.249.514l5.218 5.291 11.685-11.758a1.773 1.773 0 011.249-.514c.441 0 .882.147 1.249.514l2.425 2.425a1.773 1.773 0 010 2.498z"></path></svg>