<svg viewBox="0 8 32 16" id="icon-accessories" xmlns="http://www.w3.org/2000/svg"><path fill="#fff" d="M30.313 21.474h-3.232c-.33 0-.66-.33-.66-.66v-7.387c0-.33.33-.66.66-.66h3.232c.33 0 .66.33.66.66v7.387c0 .33-.264.66-.66.66zm-8.905-.066H2.412a1.323 1.323 0 01-1.319-1.319v-9.498h21.634v9.498c0 .726-.594 1.319-1.319 1.319z"></path><path d="M.434 9.8v10.421c0 1.121.857 1.979 1.979 1.979h18.996c1.121 0 1.979-.857 1.979-1.979V9.8H.435zm22.294 10.289c0 .726-.594 1.319-1.319 1.319H2.413a1.323 1.323 0 01-1.319-1.319v-9.498h21.634v9.498z"></path><path d="M3.336 18.77h1.319v.726H3.336v-.726zm2.704 0h9.168v.726H6.04v-.726zm10.488 0h1.319v.726h-1.319v-.726zm2.638 0h1.319v.726h-1.319v-.726zm11.081-6.662h-3.166c-.726 0-1.319.594-1.319 1.319v7.453c0 .726.594 1.319 1.319 1.319h3.166c.726 0 1.319-.594 1.319-1.319v-7.453c0-.726-.594-1.319-1.319-1.319zm.725 8.707c0 .33-.33.66-.66.66H27.08c-.33 0-.66-.33-.66-.66v-7.387c0-.396.33-.66.66-.66h3.232c.33 0 .66.264.66.66v7.387z"></path></svg>