<svg viewBox="0 0 32 32" id="icon-solutions-hover" xmlns="http://www.w3.org/2000/svg"><path fill="#fff" d="M29.019 29.674H2.859a1.788 1.788 0 01-1.783-1.783V8.806c0-.951.773-1.783 1.783-1.783h26.16c.951 0 1.783.832 1.783 1.783v19.085c0 .951-.773 1.783-1.783 1.783z"></path><path fill="#3e8ddd" d="M29.079 6.487H21.35V3.514a1.751 1.751 0 00-1.783-1.783h-7.135a1.751 1.751 0 00-1.783 1.783v2.973H2.92A2.385 2.385 0 00.542 8.865V27.89a2.385 2.385 0 002.378 2.378h26.16a2.385 2.385 0 002.378-2.378V8.865a2.385 2.385 0 00-2.378-2.378zM11.838 3.515c0-.357.238-.594.594-.594h7.135c.357 0 .594.238.594.594v2.973h-8.323V3.515zM29.079 29.08H2.919a1.192 1.192 0 01-1.189-1.189V20.4c.357.178.773.357 1.189.357h4.756v.594c0 1.011.773 1.783 1.783 1.783h1.189a1.751 1.751 0 001.783-1.783v-.594h7.135v.594c0 1.011.773 1.783 1.783 1.783h1.189a1.751 1.751 0 001.783-1.783v-.594h4.756c.416 0 .832-.119 1.189-.357v7.491c0 .654-.535 1.189-1.189 1.189zM8.865 20.756h2.378v.594c0 .357-.238.594-.594.594H9.46c-.357 0-.594-.238-.594-.594v-.594zm11.891 0h2.378v.594c0 .357-.238.594-.594.594h-1.189c-.357 0-.594-.238-.594-.594v-.594zm8.323-1.189H2.919a1.192 1.192 0 01-1.189-1.189V8.866c0-.654.535-1.189 1.189-1.189h26.16c.654 0 1.189.535 1.189 1.189v9.512c0 .654-.535 1.189-1.189 1.189z"></path></svg>