<svg viewBox="0 0 32 32" id="icon-sale-hover" xmlns="http://www.w3.org/2000/svg"><path fill="#fff" d="M5.655 2.834h11.621l14.913 14.778-11.823 11.823L5.252 14.321l.403-11.487zm5.71 2.888c-1.612 0-2.888 1.276-2.888 2.888s1.276 2.888 2.888 2.888 2.888-1.276 2.888-2.888-1.344-2.888-2.888-2.888z"></path><path fill="#f00f00" d="M31.223 16.995l-13.87-13.87a.708.708 0 00-.498-.187L5.97 3.062a.69.69 0 00-.684.684l-.124 10.885c0 .187.062.373.187.498L7.65 17.43c-.373.435-.809.809-1.182 1.12-1.306.995-2.426 1.493-3.234 1.493-.311 0-.56-.062-.746-.249-.933-.684-.498-3.359 1.306-6.096v-2.364a4.376 4.376 0 00-.498.622C.497 15.564-.249 19.42 1.617 20.851c.435.311.995.498 1.617.498 1.244 0 2.737-.684 4.167-1.866.435-.373.871-.746 1.244-1.182l10.574 10.574c.124.124.311.187.498.187s.373-.062.498-.187l11.009-11.009a.708.708 0 00.187-.498.68.68 0 00-.187-.373zM19.716 27.506L9.578 17.368c.062-.124.187-.187.249-.311 1.244-1.617 2.115-3.297 2.488-4.789.498-.187.995-.435 1.431-.809a3.341 3.341 0 000-4.727c-.622-.622-1.493-.995-2.364-.995s-1.741.373-2.364.995a3.341 3.341 0 001.804 5.66c-.373 1.182-1.057 2.488-2.053 3.794-.062.062-.062.124-.124.187L6.592 14.32l.124-9.89 9.89-.124 13.186 13.186-10.076 10.014zm-7.214-16.918c0-1.057-.311-1.928-.995-2.426-.311-.249-.746-.187-.995.124s-.187.746.124.995c.373.311.56.933.435 1.741a1.931 1.931 0 01-1.12-.56 1.953 1.953 0 010-2.737c.373-.373.871-.56 1.368-.56s.995.187 1.368.56c.746.746.746 1.99 0 2.737-.062.062-.124.124-.187.124z"></path></svg>