<svg viewBox="0 0 32 32" id="icon-dcg-servers" xmlns="http://www.w3.org/2000/svg"><path fill="#fff" d="M25.076 30.541H6.732a1.923 1.923 0 01-1.918-1.918V3.248c0-1.087.831-1.918 1.918-1.918H25.14c1.087 0 1.918.831 1.918 1.918v25.375c-.064 1.023-.895 1.918-1.981 1.918z"></path><path d="M28.016 2.418c0-.511-.192-.959-.511-1.278l-.064-.064c-.32-.32-.831-.575-1.342-.575H5.901c-.511 0-.959.192-1.278.511l-.064.064c-.32.32-.575.831-.575 1.342v7.606c0 .383.128.767.32 1.087-.192.32-.32.703-.32 1.087v7.606c0 .383.128.767.32 1.087-.192.32-.32.703-.32 1.087v7.606c0 .511.192 1.023.575 1.342.32.32.831.575 1.342.575h20.198c.511 0 .959-.192 1.342-.575.32-.32.575-.831.575-1.342v-7.67c0-.383-.128-.767-.32-1.087.192-.32.32-.703.32-1.087v-7.542c0-.383-.128-.767-.32-1.087.192-.32.32-.703.32-1.087V2.418zm-1.661 27.1c0 .064 0 .128-.064.192s-.128.064-.192.064h-9.971v-1.342c0-.447-.383-.831-.831-.831s-.831.383-.831.831v1.342H12.74v-1.342c0-.447-.383-.831-.831-.831s-.831.383-.831.831v1.342H9.352v-1.342c0-.447-.383-.831-.831-.831s-.831.383-.831.831v1.342H5.772c-.064 0-.128 0-.192-.064s-.064-.128-.064-.192v-7.606c0-.064 0-.128.064-.192s.128-.064.128-.064h20.198c.064 0 .128 0 .192.064s.064.128.064.192v7.606zm0-9.715c0 .064 0 .128-.064.192s-.128.064-.192.064h-9.971v-1.342c0-.447-.383-.831-.831-.831s-.831.383-.831.831v1.342H12.74v-1.342c0-.447-.383-.831-.831-.831s-.831.383-.831.831v1.342H9.352v-1.342c0-.447-.383-.831-.831-.831s-.831.383-.831.831v1.342H5.772c-.064 0-.128 0-.192-.064s-.064-.128-.064-.192v-7.606c0-.064 0-.128.064-.192s.128-.064.128-.064h20.198c.064 0 .128 0 .192.064s.064.128.064.192v7.606zm0-9.779c0 .064 0 .128-.064.192s-.128.064-.192.064h-9.971V8.938c0-.447-.383-.831-.831-.831s-.831.383-.831.831v1.342H12.74V8.938c0-.447-.383-.831-.831-.831s-.831.383-.831.831v1.342H9.352V8.938c0-.447-.383-.831-.831-.831s-.831.383-.831.831v1.342H5.772c-.064 0-.128 0-.192-.064s-.064-.128-.064-.192V2.418c0-.064 0-.128.064-.192s.128-.064.192-.064H25.97c.064 0 .128 0 .192.064s.064.128.064.192v7.606z"></path><path d="M23.862 4.782h-1.151a.846.846 0 00-.831.831v1.151c0 .447.383.831.831.831h1.151a.846.846 0 00.831-.831V5.613a.846.846 0 00-.831-.831zm0 9.78h-1.151a.846.846 0 00-.831.831v1.151c0 .447.383.831.831.831h1.151a.846.846 0 00.831-.831v-1.151a.846.846 0 00-.831-.831zm0 9.779h-1.151a.846.846 0 00-.831.831v1.151c0 .447.383.831.831.831h1.151a.846.846 0 00.831-.831v-1.151a.846.846 0 00-.831-.831z"></path></svg>