<svg viewBox="0 0 32 32" id="icon-dcg-services" xmlns="http://www.w3.org/2000/svg"><path fill="#fff" d="M1.765 15.94L7.262 5.59l1.697.901-5.497 10.35-1.697-.901zm21.237-9.488l1.697-.901 5.497 10.35-1.697.901-5.497-10.35zm.306 1.812s-4.931-.64-6.468-.768-2.69 1.089-2.69 1.089h-3.202l-1.409-.768-.384-.192-4.291 7.877.832 2.369 1.473-1.089.512.256-.512.256c-.512.256-1.281 1.473-1.729 2.177-.512.64.128 1.537.384 2.241s1.857.128 1.857.128-.064.192-.192.768.32 1.281 1.409 1.601 1.601-.832 1.601-.832l-.192.832c-.192.832.768 1.089 1.537 1.409s1.729-.961 1.729-.961l-.32.576c-.32.576.32 1.153 1.089 1.729s2.113-1.089 2.113-1.089.832.576 1.857.961 1.537-.448 1.729-.576c.256-.192.064-1.281.064-1.281s.064-.32.384-.064.704-.192 1.473-.704.384-1.793.384-1.793.256.128.64.128c.448 0 1.153-.64 1.409-1.025s.256-1.217.256-1.217l.64-.064c.64-.064.961-.384 1.409-1.089.448-.64-.128-1.601-.128-1.601l.897-.897-4.162-8.389z"></path><path d="M17.224 24.466c-.128-.576-.448-1.089-.897-1.409a2.308 2.308 0 00-1.281-.384h-.064v-.384c-.128-.576-.448-1.089-.897-1.409a2.308 2.308 0 00-1.281-.384h-.064v-.384c-.128-.576-.448-1.089-.897-1.409a2.308 2.308 0 00-1.281-.384h-.064v-.384c-.128-.576-.448-1.089-.897-1.409a2.308 2.308 0 00-1.281-.384c-.704 0-1.409.384-1.793.961L4.99 19.28a2.577 2.577 0 00-.384 1.665c.128.576.448 1.089.897 1.409.384.256.832.384 1.281.384h.064c0 .128 0 .256.064.384.128.576.448 1.089.897 1.409.384.256.832.384 1.281.384.256 0 .512-.064.768-.192.128.448.448.832.832 1.153.384.256.832.384 1.281.384.256 0 .512-.064.768-.192.128.448.448.832.832 1.153.384.256.832.384 1.281.384.704 0 1.409-.384 1.793-.961l.32-.448c.256-.576.384-1.153.256-1.729zM6.146 21.008c-.192-.128-.32-.384-.384-.576a.889.889 0 01.128-.704l1.537-2.177a.913.913 0 01.769-.384c.192 0 .384.064.512.192.192.128.32.384.384.576a.889.889 0 01-.128.704l-1.537 2.177c-.256.384-.832.512-1.281.192zm2.305 2.241c-.192-.128-.32-.384-.384-.576a.889.889 0 01.128-.704l1.537-2.177a.912.912 0 01.768-.384c.192 0 .384.064.512.192.192.128.32.384.384.576a.889.889 0 01-.128.704l-.32.448-.897 1.281-.32.448c-.256.384-.897.512-1.281.192zm2.882 1.409c-.192-.128-.32-.384-.384-.576a.889.889 0 01.128-.704l.897-1.281a.912.912 0 01.768-.384c.192 0 .384.064.512.192.192.128.32.384.384.576a.889.889 0 01-.128.704l-.32.448-.32.448-.32.448c-.192.32-.832.384-1.217.128zm4.483.704l-.32.448c-.256.384-.897.512-1.281.256-.192-.128-.32-.384-.384-.576a.889.889 0 01.128-.704l.32-.448a.912.912 0 01.768-.384c.192 0 .384.064.512.192.192.128.32.384.384.576s0 .448-.128.64zM10.885 9.225c-.128 0-.256 0-.32-.064L8.708 8.072c-.32-.192-.384-.576-.256-.897s.576-.384.897-.256l1.729 1.025h2.818c.384 0 .64.256.64.64s-.256.64-.64.64h-3.01z"></path><path d="M6.018 19.023a.615.615 0 01-.576-.448l-.897-2.433c-.128-.32.064-.704.384-.832s.704.064.832.384l.897 2.433c.128.32-.064.704-.384.832-.128.064-.192.064-.256.064zm21.452-3.074l-.897.768c-.32-.192-7.044-5.059-8.325-5.955-1.729-1.217-3.778 1.409-4.034 1.729-.32.448-1.089.576-1.537.256-.192-.128-.256-.384-.256-.512-.064-.384 0-.768.192-1.089.832-.832 2.305-2.113 2.562-2.369.897-.768 2.049-.576 2.113-.576l5.763.512c.384 0 .64-.256.704-.576s-.256-.64-.576-.704l-5.699-.512c-.064 0-1.729-.32-3.074.832-.448.32-2.369 2.113-2.754 2.497 0 0-.064.064-.064.128-.384.576-.576 1.345-.448 2.049.128.576.384 1.025.768 1.345 1.025.704 2.625.448 3.33-.576.512-.704 1.729-1.793 2.305-1.409 1.281.897 8.261 5.891 8.325 5.955.192.128.32.384.384.576a.889.889 0 01-.128.704.94.94 0 01-1.281.256l-3.458-2.369c-.32-.192-.704-.128-.897.128-.192.32-.128.704.128.897l3.01 2.113c.192.128.32.384.384.576a.889.889 0 01-.128.704.94.94 0 01-1.281.256l-3.01-2.113c-.32-.192-.704-.128-.897.128-.192.32-.128.704.128.897l2.561 1.793c.192.128.32.384.384.576a.889.889 0 01-.128.704.94.94 0 01-1.281.256l-1.729-1.217c-.32-.192-.704-.128-.897.128-.192.32-.128.704.128.897l1.153.832c.256.192.448.448.512.768.064.192 0 .384-.128.576a.94.94 0 01-1.281.256l-1.089-.768c-.32-.192-.704-.128-.897.128-.192.32-.128.704.128.897l1.089.768c.384.256.832.384 1.281.384.704 0 1.409-.32 1.793-.961.256-.384.384-.768.32-1.217h.064c.704 0 1.409-.32 1.793-.961.256-.384.384-.832.384-1.345.704 0 1.409-.32 1.793-.961.256-.384.384-.832.384-1.345.704 0 1.409-.32 1.793-.961.32-.512.448-1.089.384-1.665 0-.128-.064-.32-.128-.448l.897-.768c.448-.128-.384-1.153-.64-.897z"></path><path d="M3.841 17.87c-.128 0-.192 0-.256-.064l-2.562-1.281c-.128-.064-.256-.192-.32-.384s-.064-.32.064-.512L6.53 4.743c.192-.32.512-.448.832-.256l2.561 1.281c.128.064.256.192.32.384s.064.32-.064.512L4.416 17.55a.672.672 0 01-.576.32zm-1.665-2.177l1.409.704 5.187-9.734-1.409-.704-5.187 9.734zm25.999 2.177a.672.672 0 01-.576-.32L21.836 6.664c-.064-.128-.128-.32-.064-.512s.192-.32.32-.384l2.561-1.281c.32-.128.704-.064.832.256l5.763 10.886c.064.128.128.32.064.512s-.192.32-.32.384l-2.561 1.281c-.064.064-.128.064-.256.064zM23.308 6.6l5.187 9.734 1.409-.704-5.187-9.734-1.409.704z"></path></svg>