<svg viewBox="0 0 32 32" id="icon-warranty" xmlns="http://www.w3.org/2000/svg"><path fill="#fff" d="M29.088 4.485C22.672 4.258 18.356 1.958 16.34.61a.58.58 0 00-.639 0C13.699 1.959 9.37 4.258 2.953 4.485c-.156 0-.298.071-.397.185s-.156.256-.156.412c.241 6.033 2.044 20.683 13.344 26.362.085.043.17.057.256.057s.17-.014.256-.057c5.735-2.868 9.724-8.376 11.853-16.339C29.174 11.144 29.5 7.468 29.6 5.083a.56.56 0 00-.156-.412c-.057-.114-.199-.185-.355-.185z"></path><path d="M29.088 4.471C22.672 4.244 18.356 1.944 16.34.596a.58.58 0 00-.639 0C13.699 1.945 9.37 4.244 2.953 4.471c-.156 0-.298.071-.397.185s-.156.256-.156.412c.241 6.033 2.044 20.683 13.344 26.362.085.043.17.057.256.057s.17-.014.256-.057c5.735-2.868 9.724-8.376 11.853-16.339C29.174 11.13 29.5 7.454 29.6 5.069a.56.56 0 00-.156-.412c-.057-.128-.213-.185-.355-.185zm-2.044 10.321c-2.016 7.524-5.721 12.719-11.016 15.488C5.821 24.942 3.905 11.669 3.578 5.579c6.062-.341 10.278-2.442 12.45-3.833 2.158 1.391 6.374 3.492 12.45 3.833-.128 2.314-.483 5.65-1.434 9.213z"></path></svg>